<svg width="383" height="194" viewBox="0 0 383 194" fill="none" xmlns="http://www.w3.org/2000/svg">
<g id="404" filter="url(#filter0_i_1_16)">
<path d="M97.64 185.11L77.12 165.54V118.8L97.64 100.18V185.11ZM22.97 107.02C18.5367 103.473 14.04 99.99 9.48 96.57L22.97 86.5H74.84L88.14 96.57L74.84 107.02H22.97ZM0.360002 93.53V8.59999L20.88 27.03V74.15L0.360002 93.53ZM97.07 8.59999V93.53L76.55 75.1V28.17L97.07 8.59999ZM149.093 193.47L168.663 172.95H215.593L234.023 193.47H149.093ZM143.393 100.18L163.913 119.94V166.49L143.393 185.11V100.18ZM240.103 185.11L219.583 165.54V118.8L240.103 100.18V185.11ZM148.903 0.429994H233.833L215.023 20.95H168.473L148.903 0.429994ZM142.823 93.53V8.59999L163.343 27.03V74.15L142.823 93.53ZM239.533 8.59999V93.53L219.013 75.1V28.17L239.533 8.59999ZM382.566 185.11L362.046 165.54V118.8L382.566 100.18V185.11ZM307.896 107.02C303.462 103.473 298.966 99.99 294.406 96.57L307.896 86.5H359.766L373.066 96.57L359.766 107.02H307.896ZM285.286 93.53V8.59999L305.806 27.03V74.15L285.286 93.53ZM381.996 8.59999V93.53L361.476 75.1V28.17L381.996 8.59999Z" fill="url(#paint0_linear_1_16)"/>
</g>
<defs>
<filter id="filter0_i_1_16" x="0.360001" y="0.429993" width="387.206" height="200.04" filterUnits="userSpaceOnUse" color-interpolation-filters="sRGB">
<feFlood flood-opacity="0" result="BackgroundImageFix"/>
<feBlend mode="normal" in="SourceGraphic" in2="BackgroundImageFix" result="shape"/>
<feColorMatrix in="SourceAlpha" type="matrix" values="0 0 0 0 0 0 0 0 0 0 0 0 0 0 0 0 0 0 127 0" result="hardAlpha"/>
<feOffset dx="5" dy="7"/>
<feGaussianBlur stdDeviation="5.95"/>
<feComposite in2="hardAlpha" operator="arithmetic" k2="-1" k3="1"/>
<feColorMatrix type="matrix" values="0 0 0 0 0 0 0 0 0 0 0 0 0 0 0 0 0 0 0.49 0"/>
<feBlend mode="normal" in2="shape" result="effect1_innerShadow_1_16"/>
</filter>
<linearGradient id="paint0_linear_1_16" x1="7.00001" y1="-17" x2="406.827" y2="169.331" gradientUnits="userSpaceOnUse">
<stop offset="0.253143" stop-color="#07B4FF"/>
<stop offset="1" stop-color="#1771F9"/>
</linearGradient>
</defs>
</svg>
