<svg width="940" height="940" viewBox="0 0 940 940" fill="none" xmlns="http://www.w3.org/2000/svg">
<path d="M197 614L468 887" stroke="#1C1C1C" stroke-width="2" stroke-linecap="round"/>
<path d="M468 887L739 614" stroke="#1C1C1C" stroke-width="2" stroke-linecap="round"/>
<path d="M197 614L199 468" stroke="#1C1C1C" stroke-width="2" stroke-linecap="round"/>
<path d="M199 468L468 59" stroke="#1C1C1C" stroke-width="2" stroke-linecap="round"/>
<path d="M468 59L737 468" stroke="#1C1C1C" stroke-width="2" stroke-linecap="round"/>
<path d="M737 468L739.014 614" stroke="#1C1C1C" stroke-width="2" stroke-linecap="round"/>
<path d="M468 59L468 887.001" stroke="#1C1C1C" stroke-width="2" stroke-linecap="round"/>
<path d="M404 822L468 758" stroke="#1C1C1C" stroke-width="2" stroke-linecap="round"/>
<path d="M468 758L531.64 821.64" stroke="#1C1C1C" stroke-width="2" stroke-linecap="round"/>
<path d="M300 709L737 590" stroke="#1C1C1C" stroke-width="2" stroke-linecap="round"/>
<path d="M636 709L199 590" stroke="#1C1C1C" stroke-width="2" stroke-linecap="round"/>
<path d="M300 709L636 708.997" stroke="#1C1C1C" stroke-width="2" stroke-linecap="round"/>
<path d="M433 686L267 483" stroke="#1C1C1C" stroke-width="2" stroke-linecap="round"/>
<path d="M503 686L669 483" stroke="#1C1C1C" stroke-width="2" stroke-linecap="round"/>
<path d="M199 590L737.001 590" stroke="#1C1C1C" stroke-width="2" stroke-linecap="round"/>
<path d="M199 468L320 621" stroke="#1C1C1C" stroke-width="2" stroke-linecap="round"/>
<path d="M616 621L737 468" stroke="#1C1C1C" stroke-width="2" stroke-linecap="round"/>
<path d="M199 468L737 467.997" stroke="#1C1C1C" stroke-width="2" stroke-linecap="round"/>
<path d="M306 449L616 621" stroke="#1C1C1C" stroke-width="2" stroke-linecap="round"/>
<path d="M320 621L630 449" stroke="#1C1C1C" stroke-width="2" stroke-linecap="round"/>
<path d="M267 483L468 204" stroke="#1C1C1C" stroke-width="2" stroke-linecap="round"/>
<path d="M669 483L468 204" stroke="#1C1C1C" stroke-width="2" stroke-linecap="round"/>
<path d="M320 621L468 59" stroke="#1C1C1C" stroke-width="2" stroke-linecap="round"/>
<path d="M616 621L468 59" stroke="#1C1C1C" stroke-width="2" stroke-linecap="round"/>
<path d="M468 59L630 449" stroke="#D3D3D3" stroke-width="2" stroke-linecap="round"/>
<path d="M630 449L669 483" stroke="#D3D3D3" stroke-width="2" stroke-linecap="round"/>
<path d="M669 483L737 468" stroke="#D3D3D3" stroke-width="2" stroke-linecap="round"/>
<path d="M737 468L724 532" stroke="#D3D3D3" stroke-width="2" stroke-linecap="round"/>
<path d="M724 532L737 590" stroke="#D3D3D3" stroke-width="2" stroke-linecap="round"/>
<path d="M737 590L686 588" stroke="#D3D3D3" stroke-width="2" stroke-linecap="round"/>
<path d="M627 645L686 588" stroke="#D3D3D3" stroke-width="2" stroke-linecap="round"/>
<path d="M503 686L627 645" stroke="#D3D3D3" stroke-width="2" stroke-linecap="round"/>
<path d="M503 686L616 621" stroke="#D3D3D3" stroke-width="2" stroke-linecap="round"/>
<path d="M616 621L614.013 544" stroke="#D3D3D3" stroke-width="2" stroke-linecap="round"/>
<path d="M468 204L614 544" stroke="#D3D3D3" stroke-width="2" stroke-linecap="round"/>
<path d="M625 686L739 614" stroke="#D3D3D3" stroke-width="2" stroke-linecap="round"/>
<path d="M636 709L739 614" stroke="#D3D3D3" stroke-width="2" stroke-linecap="round"/>
<path d="M515 717L625 686" stroke="#D3D3D3" stroke-width="2" stroke-linecap="round"/>
<path d="M468 686L515 717" stroke="#D3D3D3" stroke-width="2" stroke-linecap="round"/>
<path d="M468 758L636 709" stroke="#D3D3D3" stroke-width="2" stroke-linecap="round"/>
<path d="M468 59L306 449" stroke="#D3D3D3" stroke-width="2" stroke-linecap="round"/>
<path d="M306 449L267 483" stroke="#D3D3D3" stroke-width="2" stroke-linecap="round"/>
<path d="M267 483L199 468" stroke="#D3D3D3" stroke-width="2" stroke-linecap="round"/>
<path d="M199 468L212 532" stroke="#D3D3D3" stroke-width="2" stroke-linecap="round"/>
<path d="M212 532L199 590" stroke="#D3D3D3" stroke-width="2" stroke-linecap="round"/>
<path d="M199 590L250 588" stroke="#D3D3D3" stroke-width="2" stroke-linecap="round"/>
<path d="M309 645L250 588" stroke="#D3D3D3" stroke-width="2" stroke-linecap="round"/>
<path d="M433 686L309 645" stroke="#D3D3D3" stroke-width="2" stroke-linecap="round"/>
<path d="M433 686L320 621" stroke="#D3D3D3" stroke-width="2" stroke-linecap="round"/>
<path d="M320 621L321.987 544" stroke="#D3D3D3" stroke-width="2" stroke-linecap="round"/>
<path d="M468 204L322 544" stroke="#D3D3D3" stroke-width="2" stroke-linecap="round"/>
<path d="M311 686L197 614" stroke="#D3D3D3" stroke-width="2" stroke-linecap="round"/>
<path d="M300 709L197 614" stroke="#D3D3D3" stroke-width="2" stroke-linecap="round"/>
<path d="M421 717L311 686" stroke="#D3D3D3" stroke-width="2" stroke-linecap="round"/>
<path d="M468 686L421 717" stroke="#D3D3D3" stroke-width="2" stroke-linecap="round"/>
<path d="M468 758L300 709" stroke="#D3D3D3" stroke-width="2" stroke-linecap="round"/>
</svg>
