<svg width="544" height="701" viewBox="0 0 544 701" fill="none" xmlns="http://www.w3.org/2000/svg">
<path d="M272 1L434 391" stroke="#D3D3D3" stroke-width="2" stroke-linecap="round"/>
<path d="M434 391L473 425" stroke="#D3D3D3" stroke-width="2" stroke-linecap="round"/>
<path d="M473 425L541 410" stroke="#D3D3D3" stroke-width="2" stroke-linecap="round"/>
<path d="M541 410L528 474" stroke="#D3D3D3" stroke-width="2" stroke-linecap="round"/>
<path d="M528 474L541 532" stroke="#D3D3D3" stroke-width="2" stroke-linecap="round"/>
<path d="M541 532L490 530" stroke="#D3D3D3" stroke-width="2" stroke-linecap="round"/>
<path d="M431 587L490 530" stroke="#D3D3D3" stroke-width="2" stroke-linecap="round"/>
<path d="M307 628L431 587" stroke="#D3D3D3" stroke-width="2" stroke-linecap="round"/>
<path d="M307 628L420 563" stroke="#D3D3D3" stroke-width="2" stroke-linecap="round"/>
<path d="M420 563L418.013 486" stroke="#D3D3D3" stroke-width="2" stroke-linecap="round"/>
<path d="M272 146L418 486" stroke="#D3D3D3" stroke-width="2" stroke-linecap="round"/>
<path d="M429 628L543 556" stroke="#D3D3D3" stroke-width="2" stroke-linecap="round"/>
<path d="M440 651L543 556" stroke="#D3D3D3" stroke-width="2" stroke-linecap="round"/>
<path d="M319 659L429 628" stroke="#D3D3D3" stroke-width="2" stroke-linecap="round"/>
<path d="M272 628L319 659" stroke="#D3D3D3" stroke-width="2" stroke-linecap="round"/>
<path d="M272 700L440 651" stroke="#D3D3D3" stroke-width="2" stroke-linecap="round"/>
<path d="M272 1L110 391" stroke="#D3D3D3" stroke-width="2" stroke-linecap="round"/>
<path d="M110 391L71.0002 425" stroke="#D3D3D3" stroke-width="2" stroke-linecap="round"/>
<path d="M71.0002 425L3.00025 410" stroke="#D3D3D3" stroke-width="2" stroke-linecap="round"/>
<path d="M3.00024 410L16.0002 474" stroke="#D3D3D3" stroke-width="2" stroke-linecap="round"/>
<path d="M16.0002 474L3.00024 532" stroke="#D3D3D3" stroke-width="2" stroke-linecap="round"/>
<path d="M3.00024 532L54.0002 530" stroke="#D3D3D3" stroke-width="2" stroke-linecap="round"/>
<path d="M113 587L54.0003 530" stroke="#D3D3D3" stroke-width="2" stroke-linecap="round"/>
<path d="M237 628L113 587" stroke="#D3D3D3" stroke-width="2" stroke-linecap="round"/>
<path d="M237 628L124 563" stroke="#D3D3D3" stroke-width="2" stroke-linecap="round"/>
<path d="M124 563L125.987 486" stroke="#D3D3D3" stroke-width="2" stroke-linecap="round"/>
<path d="M272 146L126 486" stroke="#D3D3D3" stroke-width="2" stroke-linecap="round"/>
<path d="M115 628L1.00024 556" stroke="#D3D3D3" stroke-width="2" stroke-linecap="round"/>
<path d="M104 651L1.00025 556" stroke="#D3D3D3" stroke-width="2" stroke-linecap="round"/>
<path d="M225 659L115 628" stroke="#D3D3D3" stroke-width="2" stroke-linecap="round"/>
<path d="M272 628L225 659" stroke="#D3D3D3" stroke-width="2" stroke-linecap="round"/>
<path d="M272 700L104 651" stroke="#D3D3D3" stroke-width="2" stroke-linecap="round"/>
</svg>
