<svg width="720" height="720" viewBox="0 0 544 760" fill="red" stroke="black" stroke-width="12" stroke-linecap="round" xmlns="http://www.w3.org/2000/svg">
<path d="M272 1.00049L434 391.001"/>
<path d="M434.825 391.852L473 425"/>
<path d="M473.431 425.561L541 410"/>
<path d="M541 410L528 474"/>
<path d="M528 475L541 532"/>
<path d="M541 532L490 530"/>
<path d="M431 587L490 530"/>
<path d="M306.241 628.459L431 587"/>
<path d="M307 628L420 563"/>
<path d="M420 563L418.013 486"/>
<path d="M272 146L418 486"/>
<path d="M429 628L543 556"/>
<path d="M440 651L543 556"/>
<path d="M319 659L429 628"/>
<path d="M272 628L319 659"/>
<path d="M272 700L440 651"/>
<path d="M272 1.00049L110 391.001"/>
<path d="M109.176 391.852L71.0002 425"/>
<path d="M70.5698 425.561L3.00025 410"/>
<path d="M3.00024 410L16.0002 474"/>
<path d="M16.0002 475L3.00024 532"/>
<path d="M3.00024 532L54.0002 530"/>
<path d="M113 587L54.0003 530"/>
<path d="M237.759 628.459L113 587"/>
<path d="M237 628L124 563"/>
<path d="M124 563L125.987 486"/>
<path d="M272 146L126 486"/>
<path d="M115 628L1.00024 556"/>
<path d="M104 651L1.00025 556"/>
<path d="M225 659L115 628"/>
<path d="M272 628L225 659"/>
<path d="M272 700L104 651"/>
</svg>
