<svg width="650" height="838" viewBox="0 0 650 838" fill="none" xmlns="http://www.w3.org/2000/svg">
<path d="M325 70L487 460" stroke="#D3D3D3" stroke-width="2" stroke-linecap="round"/>
<path d="M487 460L526 494" stroke="#D3D3D3" stroke-width="2" stroke-linecap="round"/>
<path d="M526 494L594 479" stroke="#D3D3D3" stroke-width="2" stroke-linecap="round"/>
<path d="M594 479L581 543" stroke="#D3D3D3" stroke-width="2" stroke-linecap="round"/>
<path d="M581 543L594 601" stroke="#D3D3D3" stroke-width="2" stroke-linecap="round"/>
<path d="M594 601L543 599" stroke="#D3D3D3" stroke-width="2" stroke-linecap="round"/>
<path d="M484 656L543 599" stroke="#D3D3D3" stroke-width="2" stroke-linecap="round"/>
<path d="M360 697L484 656" stroke="#D3D3D3" stroke-width="2" stroke-linecap="round"/>
<path d="M360 697L473 632" stroke="#D3D3D3" stroke-width="2" stroke-linecap="round"/>
<path d="M473 632L471.013 555" stroke="#D3D3D3" stroke-width="2" stroke-linecap="round"/>
<path d="M325 215L471 555" stroke="#D3D3D3" stroke-width="2" stroke-linecap="round"/>
<path d="M482 697L596 625" stroke="#D3D3D3" stroke-width="2" stroke-linecap="round"/>
<path d="M493 720L596 625" stroke="#D3D3D3" stroke-width="2" stroke-linecap="round"/>
<path d="M372 728L482 697" stroke="#D3D3D3" stroke-width="2" stroke-linecap="round"/>
<path d="M325 697L372 728" stroke="#D3D3D3" stroke-width="2" stroke-linecap="round"/>
<path d="M325 769L493 720" stroke="#D3D3D3" stroke-width="2" stroke-linecap="round"/>
<path d="M325 70L163 460" stroke="#D3D3D3" stroke-width="2" stroke-linecap="round"/>
<path d="M163 460L124 494" stroke="#D3D3D3" stroke-width="2" stroke-linecap="round"/>
<path d="M124 494L56 479" stroke="#D3D3D3" stroke-width="2" stroke-linecap="round"/>
<path d="M56 479L69 543" stroke="#D3D3D3" stroke-width="2" stroke-linecap="round"/>
<path d="M69 543L56 601" stroke="#D3D3D3" stroke-width="2" stroke-linecap="round"/>
<path d="M56 601L107 599" stroke="#D3D3D3" stroke-width="2" stroke-linecap="round"/>
<path d="M166 656L107 599" stroke="#D3D3D3" stroke-width="2" stroke-linecap="round"/>
<path d="M290 697L166 656" stroke="#D3D3D3" stroke-width="2" stroke-linecap="round"/>
<path d="M290 697L177 632" stroke="#D3D3D3" stroke-width="2" stroke-linecap="round"/>
<path d="M177 632L178.987 555" stroke="#D3D3D3" stroke-width="2" stroke-linecap="round"/>
<path d="M325 215L179 555" stroke="#D3D3D3" stroke-width="2" stroke-linecap="round"/>
<path d="M168 697L54 625" stroke="#D3D3D3" stroke-width="2" stroke-linecap="round"/>
<path d="M157 720L54 625" stroke="#D3D3D3" stroke-width="2" stroke-linecap="round"/>
<path d="M278 728L168 697" stroke="#D3D3D3" stroke-width="2" stroke-linecap="round"/>
<path d="M325 697L278 728" stroke="#D3D3D3" stroke-width="2" stroke-linecap="round"/>
<path d="M325 769L157 720" stroke="#D3D3D3" stroke-width="2" stroke-linecap="round"/>
</svg>
